<svg xmlns="http://www.w3.org/2000/svg" viewBox="0 0 512.28 233.5"><title>Asset 2</title><g id="Layer_2" data-name="Layer 2"><g id="fishy"><path id="fish" d="M0,120.62c15.06-19.91,32.2-37.07,50.91-52.71,28-23.44,58.34-43.07,92.93-55.58C165.63,4.44,188.07-.12,211.25,0c31.83.18,61.83,8.28,90.36,22.14C339.35,40.48,372,65.63,400.81,96a7.3,7.3,0,0,0,1.09.73c32.53-23.1,61.21-50.46,87.28-81.62l23,25.39C488.47,71,460.23,96.23,428.83,119.72a562.92,562.92,0,0,1,83.45,78.81l-23.37,26.16c-25.54-30.75-53.94-57.9-86.57-81.28-2.63,2.28-5.27,4.48-7.81,6.78-30.86,27.87-64.42,51.58-103.33,67-25.92,10.3-52.76,16.41-80.72,16.27-32.8-.17-63.81-8.34-93.41-22.34C73.24,190.42,35.59,161.58,3.63,125.21,2.43,123.85,1.38,122.37,0,120.62Zm378.22-.43a77.59,77.59,0,0,0-5.31-6.36c-25.85-25.06-54-47-86.61-62.69-38-18.3-77.37-24-118.39-12.26-30.83,8.81-58.25,24.48-83.27,44.22C70.35,94.38,57,106.82,43,118.91c1.72,1.88,2.66,3,3.74,4.06,26,24.46,54.69,45.1,87.31,59.95,38,17.29,77.27,23.3,118.21,12.67C301.35,182.84,341.53,155.05,378.22,120.19Z"/><path id="eye" d="M110.08,84.77a17.83,17.83,0,1,1-17.63,17.85A17.68,17.68,0,0,1,110.08,84.77Z"/></g></g>

<style type="text/css">
#fishy{fill:#31708E;}
</style>

</svg>
